<?xml version="1.0" encoding="UTF-8"?>
<svg width="2173px" height="500px" viewBox="0 0 2173 500" version="1.1" xmlns="http://www.w3.org/2000/svg" xmlns:xlink="http://www.w3.org/1999/xlink">
    <!-- Generator: Sketch 51.2 (57519) - http://www.bohemiancoding.com/sketch -->
    <title>EOS 路 TRIBE Side-by-side</title>
    <desc>Created with Sketch.</desc>
    <defs></defs>
    <g id="EOS-路-TRIBE-Side-by-side" stroke="none" stroke-width="1" fill="none" fill-rule="evenodd">
        <path d="M256.501609,173.548158 L190.779929,211.524433 M39.0009998,287.475981 L76.945732,353.24956 M39.0009998,211.524433 L39.0009998,287.475981 M76.9447322,145.749853 L39,211.524433 M76.9447322,221.701402 L39,287.475981 M114.889464,419.022138 L180.611144,456.999413 M76.9447322,353.24956 L114.889464,419.022138 M142.666412,391.224834 L180.612144,456.999413 M180.611144,456.999413 L256.500609,456.999413 M256.501609,456.999413 L332.391073,456.999413 M332.391073,456.999413 L398.111753,419.022138 M322.221289,419.022138 L398.111753,419.022138 M398.112753,419.022138 L436.055486,353.24956 M474.000218,287.475981 L474.000218,211.524433 M436.055486,353.24956 L474.000218,287.475981 M436.055486,277.302014 L474.000218,211.524433 M474.000218,211.524433 L436.055486,145.749853 M332.391073,42 L256.501609,42 M398.112753,79.9762745 L332.392073,42 M436.055486,145.749853 L398.112753,79.9762745 M370.333806,107.774579 L332.391073,42.0010006 M180.611144,42 L114.889464,79.9762745 M256.501609,42 L180.611144,42 M190.779929,79.9762745 L114.890464,79.9762745 M114.889464,79.9762745 L76.9447322,145.749853 M218.555877,391.224834 L256.500609,456.999413 M284.276557,353.24956 L322.221289,419.022138 M256.501609,456.999413 L322.221289,419.022138 M218.555877,391.224834 L284.275557,353.24956 M322.221289,419.022138 L360.168021,353.24956 M284.276557,353.24956 L322.221289,287.475981 M398.112753,211.524433 L436.055486,145.749853 M332.391073,173.548158 L370.333806,107.774579 M436.055486,145.749853 L370.334805,107.774579 M398.112753,211.524433 L332.392073,173.548158 M370.333806,107.774579 L294.446341,107.774579 M294.446341,107.774579 L256.501609,173.548158 M294.446341,107.774579 L256.501609,42.0010006 M228.724661,145.749853 L190.779929,79.9762745 M256.501609,42 L190.779929,79.9762745 M294.446341,107.774579 L228.724661,145.749853 M190.779929,79.9762745 L152.835196,145.749853 M228.724661,145.749853 L190.779929,211.524433 M152.835196,145.749853 L190.779929,211.524433 M152.835196,145.749853 L76.945732,145.749853 M152.835196,221.701402 L76.945732,221.701402 M76.9447322,145.749853 L76.9447322,221.701402 M152.835196,145.749853 L152.835196,221.701402 M76.9447322,221.701402 L114.889464,287.475981 M152.835196,221.701402 L190.779929,287.475981 M114.889464,287.475981 L190.778929,287.475981 M114.889464,287.475981 L76.9447322,353.24956 M180.611144,325.450254 L142.665412,391.224834 M76.9447322,353.24956 L142.665412,391.224834 M114.889464,287.475981 L180.611144,325.450254 M142.666412,391.224834 L218.556876,391.224834 M180.611144,325.450254 L256.500609,325.450254 M256.501609,325.450254 L218.556876,391.224834 M190.779929,287.475981 L256.501609,325.450254 M360.168021,353.24956 L322.221289,287.475981 M360.168021,353.24956 L436.054486,353.24956 M360.168021,277.302014 L436.054486,277.302014 M436.055486,353.24956 L436.055486,277.302014 M360.168021,353.24956 L360.168021,277.302014 M436.055486,277.302014 L398.112753,211.524433 M360.168021,277.302014 L322.221289,211.524433 M398.112753,211.524433 L332.392073,173.548158 M322.221289,211.524433 L398.111753,211.524433 M256.501609,173.548158 L332.391073,173.548158 M322.221289,211.524433 L256.501609,173.548158 M322.221289,287.475981 L322.221289,211.524433 M256.501609,325.450254 L322.221289,287.475981 M190.779929,211.524433 L190.779929,287.475981" id="EOS-路-TRIBE-Shape" stroke="#E3CA1E" stroke-width="9" stroke-linecap="round" stroke-linejoin="round"></path>
        <g id="EOS-路-TRIBE-Text" transform="translate(595.000000, 134.000000)">
            <g id="Group">
                <g id="SVGID_1_-link" fill="#E3CA1E" fill-rule="nonzero">
                    <path d="M37.8361399,194.558372 L118.572583,194.558372 L118.572583,229.622558 L0.651497706,229.622558 L0.651497706,3.30116279 L118.572583,3.30116279 L118.572583,38.6768605 L37.8361399,38.6768605 C36.6590642,38.6768605 36.0732638,39.1687209 36.0732638,40.1524419 L36.0732638,96.8748837 C36.0732638,97.8586047 36.6590642,98.3559302 37.8361399,98.3559302 L118.572583,98.3559302 L118.572583,133.698837 L37.8361399,133.698837 C36.6590642,133.698837 36.0732638,134.201628 36.0732638,135.190814 L36.0732638,192.787674 C36.067789,193.984535 36.6590642,194.558372 37.8361399,194.558372 Z M387.99675,161.297674 C381.90333,175.545233 373.702124,187.874535 363.371232,198.19814 C353.045814,208.510814 340.733055,216.752209 326.41653,222.823953 C312.110954,228.939419 297.093658,231.994419 281.364642,231.994419 C265.630151,231.994419 250.61833,228.939419 236.312755,222.823953 C222.012654,216.752209 209.677995,208.510814 199.314255,198.19814 C188.955989,187.874535 180.710984,175.545233 174.60114,161.297674 C168.485821,147.039186 165.425424,132.037442 165.425424,116.325233 C165.425424,100.613023 168.485821,85.6167442 174.60114,71.4074419 C180.710984,57.1762791 188.955989,44.9344186 199.314255,34.6326744 C209.677995,24.3309302 222.012654,16.144186 236.312755,10.0505814 C250.61833,3.97883721 265.630151,0.934767442 281.364642,0.934767442 C297.093658,0.934767442 312.110954,3.97883721 326.41653,10.0505814 C340.733055,16.144186 353.045814,24.3309302 363.371232,34.6326744 C373.702124,44.9344186 381.90333,57.1872093 387.99675,71.4074419 C394.101119,85.6167442 397.156041,100.613023 397.156041,116.325233 C397.156041,132.037442 394.101119,147.039186 387.99675,161.297674 Z M350.965401,76.0254651 C343.793452,63.6961628 334.026461,53.9627907 321.697278,46.7652326 C309.368094,39.6004651 295.922057,36.0153488 281.364642,36.0153488 C266.812702,36.0153488 253.344766,39.6004651 240.95536,46.7652326 C228.571429,53.9463953 218.788014,63.6961628 211.616064,76.0254651 C204.43864,88.3547674 200.85814,101.793488 200.85814,116.341628 C200.85814,130.867907 204.444115,144.328488 211.616064,156.701512 C218.788014,169.085465 228.571429,178.884419 240.95536,186.098372 C253.344766,193.301395 266.812702,196.919302 281.364642,196.919302 C295.916583,196.919302 309.368094,193.301395 321.697278,186.098372 C334.026461,178.884419 343.798927,169.085465 350.965401,156.701512 C358.142826,144.328488 361.7288,130.867907 361.7288,116.341628 C361.7288,101.793488 358.137351,88.3547674 350.965401,76.0254651 Z M491.494638,78.4246512 C492.972826,80.3975581 494.270346,82.0097674 495.409099,83.305 C496.542376,84.572907 498.409273,86.0375581 501.009789,87.6606977 C503.621255,89.2947674 505.630495,90.4697674 507.059411,91.202093 C508.488326,91.9398837 510.875326,93.1422093 514.220411,94.82 C523.965502,99.0445349 532.013415,102.881047 538.3532,106.274884 C544.703933,109.657791 550.63311,113.445116 556.140729,117.642326 C561.648349,121.839535 565.874872,126.233488 568.825773,130.867907 C571.776674,135.524186 574.092502,140.847209 575.767782,146.913488 C577.432112,152.952442 578.275227,159.89314 578.275227,167.675465 C578.275227,185.513605 572.033989,200.668372 559.535087,213.210814 C547.041661,225.742326 532.035314,231.999884 514.516048,231.999884 L513.333498,231.999884 C498.179333,231.999884 485.045358,227.791744 473.931573,219.413721 C462.806839,210.991977 455.667739,200.608256 452.519745,188.202442 C459.407007,186.240465 469.60103,183.059767 483.079915,178.594767 C489.76461,191.306628 500.057179,197.668023 513.930248,197.668023 C521.704422,197.668023 528.591683,194.623953 534.592032,188.57407 C540.592381,182.524186 543.58708,175.550698 543.58708,167.664535 C543.58708,163.45093 542.853461,159.521512 541.386222,155.914535 C539.90256,152.329419 538.161583,149.35093 536.141392,146.99 C534.126677,144.61814 531.318119,142.295465 527.721195,139.967326 C524.13522,137.650116 521.031025,135.868488 518.441459,134.649767 C515.824518,133.420116 512.402787,131.906279 508.176264,130.135581 C500.993365,127.080581 494.987541,124.337093 490.164268,121.850465 C485.351945,119.418488 480.337055,116.270581 475.108649,112.477791 C469.902142,108.690465 465.757741,104.717326 462.713768,100.574767 C459.664321,96.4431395 457.145927,91.3933721 455.185959,85.4363953 C453.220516,79.4794186 452.235057,72.8939535 452.235057,65.7237209 C452.235057,47.065814 458.306578,31.6651163 470.466044,19.4943023 C482.61456,7.31255814 497.88917,1.24081395 516.295349,1.24081395 C527.808791,1.24081395 538.676211,4.30674419 548.914032,10.4003488 C559.146378,16.5267442 566.520894,24.7681395 571.043055,35.1409302 L539.316759,50.64 C537.055679,45.9126744 533.666796,42.3439535 529.139161,39.9338372 C524.617,37.5237209 519.936071,36.305 515.118273,36.305 C507.831353,36.305 501.442296,39.1140698 495.934677,44.7267442 C490.416108,50.3394186 487.667773,56.7445349 487.667773,63.942093 C487.667773,66.7894186 487.936037,69.44 488.472564,71.839186 C489.009092,74.2656977 490.01645,76.4517442 491.494638,78.4246512 Z M844.360408,38.6768605 C844.250913,38.6768605 844.157842,38.7315116 844.053821,38.8134884 C843.9498,38.9227907 843.862204,38.9610465 843.752709,38.9610465 L842.597532,39.5348837 C842.384016,39.7480233 842.301894,40.2289535 842.301894,41.0159302 L842.301894,229.617093 L806.863704,229.617093 L806.863704,40.4311628 C806.863704,40.0486047 806.672087,39.6496512 806.272429,39.2561628 C805.878245,38.8626744 805.495011,38.6713953 805.100828,38.6713953 L752.833193,38.6713953 L752.833193,3.29569767 L897.038651,3.29569767 L897.038651,38.6713953 L844.360408,38.6713953 L844.360408,38.6768605 Z M1052.51813,125.692442 C1048.99785,128.326628 1045.84438,130.698488 1043.0632,132.736977 C1040.28749,134.797326 1038.88047,135.917674 1038.88047,136.119884 C1038.88047,136.218256 1038.93522,136.311163 1039.02829,136.420465 C1039.13231,136.518837 1039.17611,136.611744 1039.17611,136.710116 L1092.37993,229.628023 L1051.47792,229.628023 C1048.34635,224.119186 1031.98774,195.356279 1002.41303,143.295581 C1001.82722,142.120581 1000.79797,141.535814 999.31978,141.535814 L979.698202,141.535814 C978.504702,141.535814 977.929851,142.120581 977.929851,143.295581 L977.929851,229.628023 L942.497135,229.628023 L942.497135,3.31755814 L1007.01183,3.31755814 C1020.75898,3.31755814 1032.9513,6.49825581 1043.67637,12.9033721 C1054.38502,19.2866279 1062.53696,27.8067442 1068.19787,38.4582558 C1073.82046,49.1206977 1076.65639,60.9253488 1076.65639,73.8940698 C1076.65639,91.9016279 1071.00643,107.165698 1059.6627,119.697209 C1058.4254,121.036163 1056.02198,123.052791 1052.51813,125.692442 Z M1033.12649,49.0004651 C1027.23564,41.9122093 1018.55812,38.3817442 1007.15965,38.3817442 L980.300427,38.3817442 C978.723693,38.3817442 977.9408,39.1796512 977.9408,40.7536047 L977.9408,107.198488 C977.9408,108.575698 978.723693,109.258837 980.300427,109.258837 L1002.74151,109.258837 C1015.74409,109.258837 1025.52203,106.023488 1032.10818,99.5363953 C1038.71623,93.0438372 1041.99014,84.4089535 1041.99014,73.6098837 C1041.98467,64.2645349 1039.04472,56.0668605 1033.12649,49.0004651 Z M1134.77167,229.622558 L1134.77167,3.61267442 L1170.20439,3.61267442 L1170.20439,229.622558 L1134.77167,229.622558 Z M1349.30561,131.015465 C1354.4519,140.705116 1357.03599,151.43314 1357.03599,163.177674 C1357.03599,182.22907 1350.60861,198.072442 1337.75932,210.68593 C1324.92099,223.315814 1308.87443,229.622558 1289.58134,229.622558 L1220.92772,229.622558 L1220.92772,3.30116279 L1279.45849,3.30116279 C1297.7716,3.30116279 1312.88744,9.23627907 1324.81697,21.1065116 C1336.74649,32.9548837 1342.70304,47.6123256 1342.70304,65.0296512 C1342.70304,74.3695349 1341.37815,82.222907 1338.75573,88.5788372 C1336.13332,94.9293023 1332.35025,101.197791 1327.39558,107.395233 C1336.83409,113.450581 1344.13196,121.347674 1349.30561,131.015465 Z M1306.63525,57.5588372 C1305.50197,54.3453488 1303.79385,51.2630233 1301.53277,48.3063953 C1299.26621,45.3497674 1296.11274,42.9505814 1292.07784,41.1252326 C1288.05388,39.2998837 1283.35105,38.3817442 1278.05147,38.3817442 L1258.408,38.3817442 C1257.03931,38.3817442 1256.36591,39.1796512 1256.36591,40.7536047 L1256.36591,95.3938372 C1256.36591,96.7819767 1256.95718,97.4869767 1258.10689,97.4869767 L1279.09168,97.4869767 C1288.91889,97.1754651 1296.24961,93.9565116 1301.08931,87.7863953 C1305.87973,81.6162791 1308.29411,74.8286047 1308.29411,67.417907 C1308.31053,64.035 1307.74116,60.7832558 1306.63525,57.5588372 Z M1319.76923,150.870233 C1318.51003,147.197674 1316.68146,143.7 1314.21233,140.344419 C1311.77059,137.005233 1308.33243,134.294535 1303.97451,132.245116 C1299.57827,130.173837 1294.59076,129.14093 1288.98459,129.14093 L1258.11783,129.14093 C1256.96813,129.441512 1256.37686,130.037209 1256.37686,130.911628 L1256.37686,192.503488 C1256.37686,193.880698 1257.05025,194.563837 1258.41895,194.563837 L1288.98459,194.563837 C1294.59076,194.563837 1299.58922,193.569186 1303.97451,191.552558 C1308.33243,189.53593 1311.77059,186.885349 1314.21233,183.589884 C1316.67051,180.288953 1318.49908,176.791279 1319.76923,173.118721 C1320.9901,169.435233 1321.6197,165.751744 1321.6197,162.00814 C1321.6197,158.28093 1320.9901,154.553721 1319.76923,150.870233 Z M1446.94396,194.558372 L1527.69136,194.558372 L1527.69136,229.622558 L1409.77575,229.622558 L1409.77575,3.30116279 L1527.69136,3.30116279 L1527.69136,38.6768605 L1446.94396,38.6768605 C1445.76141,38.6768605 1445.21394,39.1687209 1445.21394,40.1524419 L1445.21394,96.8748837 C1445.21394,97.8586047 1445.77236,98.3559302 1446.94396,98.3559302 L1527.69136,98.3559302 L1527.69136,133.698837 L1446.94396,133.698837 C1445.76141,133.698837 1445.21394,134.201628 1445.21394,135.190814 L1445.21394,192.787674 C1445.20846,193.984535 1445.76689,194.558372 1446.94396,194.558372 Z" id="SVGID_1_"></path>
                </g>
                <g id="SVGID_1_-link" stroke="#E3CA1E">
                    <path d="M37.8361399,194.558372 L118.572583,194.558372 L118.572583,229.622558 L0.651497706,229.622558 L0.651497706,3.30116279 L118.572583,3.30116279 L118.572583,38.6768605 L37.8361399,38.6768605 C36.6590642,38.6768605 36.0732638,39.1687209 36.0732638,40.1524419 L36.0732638,96.8748837 C36.0732638,97.8586047 36.6590642,98.3559302 37.8361399,98.3559302 L118.572583,98.3559302 L118.572583,133.698837 L37.8361399,133.698837 C36.6590642,133.698837 36.0732638,134.201628 36.0732638,135.190814 L36.0732638,192.787674 C36.067789,193.984535 36.6590642,194.558372 37.8361399,194.558372 Z M387.99675,161.297674 C381.90333,175.545233 373.702124,187.874535 363.371232,198.19814 C353.045814,208.510814 340.733055,216.752209 326.41653,222.823953 C312.110954,228.939419 297.093658,231.994419 281.364642,231.994419 C265.630151,231.994419 250.61833,228.939419 236.312755,222.823953 C222.012654,216.752209 209.677995,208.510814 199.314255,198.19814 C188.955989,187.874535 180.710984,175.545233 174.60114,161.297674 C168.485821,147.039186 165.425424,132.037442 165.425424,116.325233 C165.425424,100.613023 168.485821,85.6167442 174.60114,71.4074419 C180.710984,57.1762791 188.955989,44.9344186 199.314255,34.6326744 C209.677995,24.3309302 222.012654,16.144186 236.312755,10.0505814 C250.61833,3.97883721 265.630151,0.934767442 281.364642,0.934767442 C297.093658,0.934767442 312.110954,3.97883721 326.41653,10.0505814 C340.733055,16.144186 353.045814,24.3309302 363.371232,34.6326744 C373.702124,44.9344186 381.90333,57.1872093 387.99675,71.4074419 C394.101119,85.6167442 397.156041,100.613023 397.156041,116.325233 C397.156041,132.037442 394.101119,147.039186 387.99675,161.297674 Z M350.965401,76.0254651 C343.793452,63.6961628 334.026461,53.9627907 321.697278,46.7652326 C309.368094,39.6004651 295.922057,36.0153488 281.364642,36.0153488 C266.812702,36.0153488 253.344766,39.6004651 240.95536,46.7652326 C228.571429,53.9463953 218.788014,63.6961628 211.616064,76.0254651 C204.43864,88.3547674 200.85814,101.793488 200.85814,116.341628 C200.85814,130.867907 204.444115,144.328488 211.616064,156.701512 C218.788014,169.085465 228.571429,178.884419 240.95536,186.098372 C253.344766,193.301395 266.812702,196.919302 281.364642,196.919302 C295.916583,196.919302 309.368094,193.301395 321.697278,186.098372 C334.026461,178.884419 343.798927,169.085465 350.965401,156.701512 C358.142826,144.328488 361.7288,130.867907 361.7288,116.341628 C361.7288,101.793488 358.137351,88.3547674 350.965401,76.0254651 Z M491.494638,78.4246512 C492.972826,80.3975581 494.270346,82.0097674 495.409099,83.305 C496.542376,84.572907 498.409273,86.0375581 501.009789,87.6606977 C503.621255,89.2947674 505.630495,90.4697674 507.059411,91.202093 C508.488326,91.9398837 510.875326,93.1422093 514.220411,94.82 C523.965502,99.0445349 532.013415,102.881047 538.3532,106.274884 C544.703933,109.657791 550.63311,113.445116 556.140729,117.642326 C561.648349,121.839535 565.874872,126.233488 568.825773,130.867907 C571.776674,135.524186 574.092502,140.847209 575.767782,146.913488 C577.432112,152.952442 578.275227,159.89314 578.275227,167.675465 C578.275227,185.513605 572.033989,200.668372 559.535087,213.210814 C547.041661,225.742326 532.035314,231.999884 514.516048,231.999884 L513.333498,231.999884 C498.179333,231.999884 485.045358,227.791744 473.931573,219.413721 C462.806839,210.991977 455.667739,200.608256 452.519745,188.202442 C459.407007,186.240465 469.60103,183.059767 483.079915,178.594767 C489.76461,191.306628 500.057179,197.668023 513.930248,197.668023 C521.704422,197.668023 528.591683,194.623953 534.592032,188.57407 C540.592381,182.524186 543.58708,175.550698 543.58708,167.664535 C543.58708,163.45093 542.853461,159.521512 541.386222,155.914535 C539.90256,152.329419 538.161583,149.35093 536.141392,146.99 C534.126677,144.61814 531.318119,142.295465 527.721195,139.967326 C524.13522,137.650116 521.031025,135.868488 518.441459,134.649767 C515.824518,133.420116 512.402787,131.906279 508.176264,130.135581 C500.993365,127.080581 494.987541,124.337093 490.164268,121.850465 C485.351945,119.418488 480.337055,116.270581 475.108649,112.477791 C469.902142,108.690465 465.757741,104.717326 462.713768,100.574767 C459.664321,96.4431395 457.145927,91.3933721 455.185959,85.4363953 C453.220516,79.4794186 452.235057,72.8939535 452.235057,65.7237209 C452.235057,47.065814 458.306578,31.6651163 470.466044,19.4943023 C482.61456,7.31255814 497.88917,1.24081395 516.295349,1.24081395 C527.808791,1.24081395 538.676211,4.30674419 548.914032,10.4003488 C559.146378,16.5267442 566.520894,24.7681395 571.043055,35.1409302 L539.316759,50.64 C537.055679,45.9126744 533.666796,42.3439535 529.139161,39.9338372 C524.617,37.5237209 519.936071,36.305 515.118273,36.305 C507.831353,36.305 501.442296,39.1140698 495.934677,44.7267442 C490.416108,50.3394186 487.667773,56.7445349 487.667773,63.942093 C487.667773,66.7894186 487.936037,69.44 488.472564,71.839186 C489.009092,74.2656977 490.01645,76.4517442 491.494638,78.4246512 Z M844.360408,38.6768605 C844.250913,38.6768605 844.157842,38.7315116 844.053821,38.8134884 C843.9498,38.9227907 843.862204,38.9610465 843.752709,38.9610465 L842.597532,39.5348837 C842.384016,39.7480233 842.301894,40.2289535 842.301894,41.0159302 L842.301894,229.617093 L806.863704,229.617093 L806.863704,40.4311628 C806.863704,40.0486047 806.672087,39.6496512 806.272429,39.2561628 C805.878245,38.8626744 805.495011,38.6713953 805.100828,38.6713953 L752.833193,38.6713953 L752.833193,3.29569767 L897.038651,3.29569767 L897.038651,38.6713953 L844.360408,38.6713953 L844.360408,38.6768605 Z M1052.51813,125.692442 C1048.99785,128.326628 1045.84438,130.698488 1043.0632,132.736977 C1040.28749,134.797326 1038.88047,135.917674 1038.88047,136.119884 C1038.88047,136.218256 1038.93522,136.311163 1039.02829,136.420465 C1039.13231,136.518837 1039.17611,136.611744 1039.17611,136.710116 L1092.37993,229.628023 L1051.47792,229.628023 C1048.34635,224.119186 1031.98774,195.356279 1002.41303,143.295581 C1001.82722,142.120581 1000.79797,141.535814 999.31978,141.535814 L979.698202,141.535814 C978.504702,141.535814 977.929851,142.120581 977.929851,143.295581 L977.929851,229.628023 L942.497135,229.628023 L942.497135,3.31755814 L1007.01183,3.31755814 C1020.75898,3.31755814 1032.9513,6.49825581 1043.67637,12.9033721 C1054.38502,19.2866279 1062.53696,27.8067442 1068.19787,38.4582558 C1073.82046,49.1206977 1076.65639,60.9253488 1076.65639,73.8940698 C1076.65639,91.9016279 1071.00643,107.165698 1059.6627,119.697209 C1058.4254,121.036163 1056.02198,123.052791 1052.51813,125.692442 Z M1033.12649,49.0004651 C1027.23564,41.9122093 1018.55812,38.3817442 1007.15965,38.3817442 L980.300427,38.3817442 C978.723693,38.3817442 977.9408,39.1796512 977.9408,40.7536047 L977.9408,107.198488 C977.9408,108.575698 978.723693,109.258837 980.300427,109.258837 L1002.74151,109.258837 C1015.74409,109.258837 1025.52203,106.023488 1032.10818,99.5363953 C1038.71623,93.0438372 1041.99014,84.4089535 1041.99014,73.6098837 C1041.98467,64.2645349 1039.04472,56.0668605 1033.12649,49.0004651 Z M1134.77167,229.622558 L1134.77167,3.61267442 L1170.20439,3.61267442 L1170.20439,229.622558 L1134.77167,229.622558 Z M1349.30561,131.015465 C1354.4519,140.705116 1357.03599,151.43314 1357.03599,163.177674 C1357.03599,182.22907 1350.60861,198.072442 1337.75932,210.68593 C1324.92099,223.315814 1308.87443,229.622558 1289.58134,229.622558 L1220.92772,229.622558 L1220.92772,3.30116279 L1279.45849,3.30116279 C1297.7716,3.30116279 1312.88744,9.23627907 1324.81697,21.1065116 C1336.74649,32.9548837 1342.70304,47.6123256 1342.70304,65.0296512 C1342.70304,74.3695349 1341.37815,82.222907 1338.75573,88.5788372 C1336.13332,94.9293023 1332.35025,101.197791 1327.39558,107.395233 C1336.83409,113.450581 1344.13196,121.347674 1349.30561,131.015465 Z M1306.63525,57.5588372 C1305.50197,54.3453488 1303.79385,51.2630233 1301.53277,48.3063953 C1299.26621,45.3497674 1296.11274,42.9505814 1292.07784,41.1252326 C1288.05388,39.2998837 1283.35105,38.3817442 1278.05147,38.3817442 L1258.408,38.3817442 C1257.03931,38.3817442 1256.36591,39.1796512 1256.36591,40.7536047 L1256.36591,95.3938372 C1256.36591,96.7819767 1256.95718,97.4869767 1258.10689,97.4869767 L1279.09168,97.4869767 C1288.91889,97.1754651 1296.24961,93.9565116 1301.08931,87.7863953 C1305.87973,81.6162791 1308.29411,74.8286047 1308.29411,67.417907 C1308.31053,64.035 1307.74116,60.7832558 1306.63525,57.5588372 Z M1319.76923,150.870233 C1318.51003,147.197674 1316.68146,143.7 1314.21233,140.344419 C1311.77059,137.005233 1308.33243,134.294535 1303.97451,132.245116 C1299.57827,130.173837 1294.59076,129.14093 1288.98459,129.14093 L1258.11783,129.14093 C1256.96813,129.441512 1256.37686,130.037209 1256.37686,130.911628 L1256.37686,192.503488 C1256.37686,193.880698 1257.05025,194.563837 1258.41895,194.563837 L1288.98459,194.563837 C1294.59076,194.563837 1299.58922,193.569186 1303.97451,191.552558 C1308.33243,189.53593 1311.77059,186.885349 1314.21233,183.589884 C1316.67051,180.288953 1318.49908,176.791279 1319.76923,173.118721 C1320.9901,169.435233 1321.6197,165.751744 1321.6197,162.00814 C1321.6197,158.28093 1320.9901,154.553721 1319.76923,150.870233 Z M1446.94396,194.558372 L1527.69136,194.558372 L1527.69136,229.622558 L1409.77575,229.622558 L1409.77575,3.30116279 L1527.69136,3.30116279 L1527.69136,38.6768605 L1446.94396,38.6768605 C1445.76141,38.6768605 1445.21394,39.1687209 1445.21394,40.1524419 L1445.21394,96.8748837 C1445.21394,97.8586047 1445.77236,98.3559302 1446.94396,98.3559302 L1527.69136,98.3559302 L1527.69136,133.698837 L1446.94396,133.698837 C1445.76141,133.698837 1445.21394,134.201628 1445.21394,135.190814 L1445.21394,192.787674 C1445.20846,193.984535 1445.76689,194.558372 1446.94396,194.558372 Z" id="SVGID_1_"></path>
                </g>
            </g>
            <g id="Group" transform="translate(647.000000, 103.000000)">
                <g id="SVGID_3_-link" fill="#E3CA1E" fill-rule="nonzero">
                    <path d="M63.666,11.287 C56.4336,4.379 47.7908,0.9085 37.7376,0.9085 C32.5934667,0.9085 27.75,1.8985 23.2236,3.862 C18.6753333,5.8475 14.6846667,8.493 11.2625333,11.8205 C7.82946667,15.1425 5.1344,19.0585 3.17186667,23.464 C1.20386667,27.9135 0.219866667,32.605 0.219866667,37.5385 C0.219866667,42.736 1.20386667,47.488 3.17186667,51.7945 C5.1344,56.112 7.82946667,59.896 11.2625333,63.097 C14.6846667,66.287 18.6753333,68.8225 23.2236,70.6705 C27.75,72.5405 32.588,73.4425 37.7376,73.4425 C47.7908,73.4425 56.4336,69.994 63.666,63.097 C70.9093333,56.167 74.5173333,47.554 74.5173333,37.1755 C74.5228,26.819 70.9093333,18.184 63.666,11.287 Z" id="SVGID_3_"></path>
                </g>
                <g id="SVGID_3_-link" stroke="#E3CA1E">
                    <path d="M63.666,11.287 C56.4336,4.379 47.7908,0.9085 37.7376,0.9085 C32.5934667,0.9085 27.75,1.8985 23.2236,3.862 C18.6753333,5.8475 14.6846667,8.493 11.2625333,11.8205 C7.82946667,15.1425 5.1344,19.0585 3.17186667,23.464 C1.20386667,27.9135 0.219866667,32.605 0.219866667,37.5385 C0.219866667,42.736 1.20386667,47.488 3.17186667,51.7945 C5.1344,56.112 7.82946667,59.896 11.2625333,63.097 C14.6846667,66.287 18.6753333,68.8225 23.2236,70.6705 C27.75,72.5405 32.588,73.4425 37.7376,73.4425 C47.7908,73.4425 56.4336,69.994 63.666,63.097 C70.9093333,56.167 74.5173333,47.554 74.5173333,37.1755 C74.5228,26.819 70.9093333,18.184 63.666,11.287 Z" id="SVGID_3_"></path>
                </g>
            </g>
        </g>
    </g>
</svg>